<svg width="98" height="82" xmlns="http://www.w3.org/2000/svg">
 <!-- Created with Method Draw - http://github.com/duopixel/Method-Draw/ -->

 <g>
  <title>background</title>
  <rect fill="#fff" id="canvas_background" height="84" width="100" y="-1" x="-1"/>
  <g display="none" overflow="visible" y="0" x="0" height="100%" width="100%" id="canvasGrid">
   <rect fill="url(#gridpattern)" stroke-width="0" y="1" x="1" height="400" width="580"/>
  </g>
 </g>
 <g>
  <title>Layer 1</title>
  <defs>
   <style>.cls-1{fill:none;}.cls-2{fill:#354751;}</style>
  </defs>
  <rect x="8.999999" y="8.999999" stroke="null" transform="matrix(0.11111111773384952,0,0,0.11111111773384952,0,0) " id="svg_5" height="400" width="400" class="cls-1"/>
  <defs>
   <style>.cls-1{fill:none;}.cls-2{fill:#354751;}</style>
  </defs>
  <!-- Created with Method Draw - http://github.com/duopixel/Method-Draw/ -->
  <g id="svg_29">
   <rect x="-59.282284" y="-87.242281" transform="matrix(0.36360617873357626,0,0,0.36360617873357626,0,0) " id="svg_27" height="400" width="400" class="cls-1"/>
   <path id="svg_28" d="m34.301777,77.938155c34.302607,0 53.064686,-28.419459 53.064686,-53.064686c0,-0.807206 0,-1.610775 -0.054541,-2.410709a37.945941,37.945941 0 0 0 9.304682,-9.653744a37.226001,37.226001 0 0 1 -10.711838,2.934302a18.71481,18.71481 0 0 0 8.199319,-10.315507a37.375079,37.375079 0 0 1 -11.842653,4.526897a18.667541,18.667541 0 0 0 -31.782816,17.009497a52.948332,52.948332 0 0 1 -38.436809,-19.485655a18.663905,18.663905 0 0 0 5.774066,24.896115a18.511191,18.511191 0 0 1 -8.464752,-2.334352c0,0.076357 0,0.156351 0,0.236344a18.656633,18.656633 0 0 0 14.962394,18.282119a18.620272,18.620272 0 0 1 -8.421119,0.319973a18.671177,18.671177 0 0 0 17.424008,12.951652a37.422348,37.422348 0 0 1 -23.161714,7.999336a37.964121,37.964121 0 0 1 -4.439631,-0.269069a52.799253,52.799253 0 0 0 28.586718,8.362942" class="cls-2"/>
  </g>
 </g>
</svg>